<?xml version="1.0" encoding="UTF-8" standalone="no"?>
<svg
   xmlns:dc="http://purl.org/dc/elements/1.1/"
   xmlns:cc="http://creativecommons.org/ns#"
   xmlns:rdf="http://www.w3.org/1999/02/22-rdf-syntax-ns#"
   xmlns:svg="http://www.w3.org/2000/svg"
   xmlns="http://www.w3.org/2000/svg"
   xmlns:sodipodi="http://sodipodi.sourceforge.net/DTD/sodipodi-0.dtd"
   xmlns:inkscape="http://www.inkscape.org/namespaces/inkscape"
   height="16"
   viewBox="0 0 21.333333 21.333333"
   width="16"
   version="1.1"
   id="svg6"
   sodipodi:docname="memory.svg"
   style="fill:#ffffff"
   inkscape:version="0.92.3 (unknown)">
  <metadata
     id="metadata12">
    <rdf:RDF>
      <cc:Work
         rdf:about="">
        <dc:format>image/svg+xml</dc:format>
        <dc:type
           rdf:resource="http://purl.org/dc/dcmitype/StillImage" />
        <dc:title></dc:title>
      </cc:Work>
    </rdf:RDF>
  </metadata>
  <defs
     id="defs10" />
  <sodipodi:namedview
     pagecolor="#ffffff"
     bordercolor="#666666"
     borderopacity="1"
     objecttolerance="10"
     gridtolerance="10"
     guidetolerance="10"
     inkscape:pageopacity="0"
     inkscape:pageshadow="2"
     inkscape:window-width="1366"
     inkscape:window-height="693"
     id="namedview8"
     showgrid="false"
     inkscape:zoom="13.111111"
     inkscape:cx="9"
     inkscape:cy="9"
     inkscape:window-x="0"
     inkscape:window-y="16"
     inkscape:window-maximized="1"
     inkscape:current-layer="svg6" />
  <path
     d="M 0,-2.6666666 H 24 V 21.333333 H 0 Z"
     id="path2"
     inkscape:connector-curvature="0"
     style="fill:none" />
  <path
     d="M 13.666667,7.6666669 H 7.6666663 v 5.9999991 h 6.0000007 z m -2,3.9999991 H 9.6666663 V 9.6666669 h 2.0000007 z m 8,-1.9999991 v -2 h -2 v -2 c 0,-1.1 -0.9,-2 -2,-2 h -2 v -2 h -2 v 2 H 9.6666663 v -2 h -2 v 2 h -2 c -1.1,0 -2,0.9 -2,2 v 2 h -2 v 2 h 2 v 1.9999991 h -2 v 2 h 2 v 2 c 0,1.1 0.9,2 2,2 h 2 v 2 h 2 v -2 h 2.0000007 v 2 h 2 v -2 h 2 c 1.1,0 2,-0.9 2,-2 v -2 h 2 v -2 h -2 V 9.6666669 Z m -4,5.9999991 H 5.6666663 V 5.6666669 H 15.666667 Z"
     id="path4"
     style="fill:#ffffff"
     inkscape:connector-curvature="0" />
</svg>
